<svg width="14" height="14" viewBox="0 0 14 14" fill="none" xmlns="http://www.w3.org/2000/svg">
<path d="M4.33333 1H2.33333C1.97971 1 1.64057 1.14048 1.39052 1.39052C1.14048 1.64057 1 1.97971 1 2.33333V4.33333M13 4.33333V2.33333C13 1.97971 12.8595 1.64057 12.6095 1.39052C12.3594 1.14048 12.0203 1 11.6667 1H9.66667M9.66667 13H11.6667C12.0203 13 12.3594 12.8595 12.6095 12.6095C12.8595 12.3594 13 12.0203 13 11.6667V9.66667M1 9.66667V11.6667C1 12.0203 1.14048 12.3594 1.39052 12.6095C1.64057 12.8595 1.97971 13 2.33333 13H4.33333" stroke="white" stroke-linecap="round" stroke-linejoin="round"/>
</svg>
