<svg width="40" height="40" viewBox="0 0 40 40" fill="none" xmlns="http://www.w3.org/2000/svg">
<path fill-rule="evenodd" clip-rule="evenodd" d="M20.4486 8.0856C18.2386 10.2956 17.5724 13.4606 18.4411 16.2518L16.8949 17.7981L22.1986 23.1019L23.7311 21.5693C26.5324 22.4581 29.7186 21.7981 31.9399 19.5768C35.1124 16.4043 35.1124 11.2593 31.9399 8.08685C28.7674 4.91435 23.6224 4.9131 20.4486 8.0856Z" fill="#03A9F4" stroke="#03A9F4" stroke-miterlimit="10"/>
<path d="M28.8112 13.0582C29.8468 13.0582 30.6862 12.2187 30.6862 11.1832C30.6862 10.1477 29.8468 9.30821 28.8112 9.30821C27.7757 9.30821 26.9362 10.1477 26.9362 11.1832C26.9362 12.2187 27.7757 13.0582 28.8112 13.0582Z" fill="white"/>
<path fill-rule="evenodd" clip-rule="evenodd" d="M17.3363 18.2406L6.72882 28.8481V30.6156L8.05382 31.9419L10.7076 31.9431L11.5901 31.0581L11.5851 29.2856H13.3526V27.5369H15.1213V25.7681L18.6888 25.7819L21.7538 22.7169" fill="#03A9F4"/>
<path d="M17.3363 18.2406L6.72882 28.8481V30.6156L8.05382 31.9419L10.7076 31.9431L11.5901 31.0581L11.5851 29.2856H13.3526V27.5369H15.1213V25.7681L18.6888 25.7819L21.7538 22.7169" stroke="#03A9F4" stroke-miterlimit="10" stroke-linecap="round"/>
</svg>
